<svg xmlns="http://www.w3.org/2000/svg" xmlns:xlink="http://www.w3.org/1999/xlink" width="1080" zoomAndPan="magnify" viewBox="0 0 810 809.999993" height="1080" preserveAspectRatio="xMidYMid meet" version="1.0"><defs><clipPath id="f1c507265f"><path d="M 360 207.019531 L 553 207.019531 L 553 335 L 360 335 Z M 360 207.019531 " clip-rule="nonzero"/></clipPath></defs><rect x="-81" width="972" fill="#ffffff" y="-80.999999" height="971.999992" fill-opacity="1"/><rect x="-81" width="972" fill="#ffffff" y="-80.999999" height="971.999992" fill-opacity="1"/><path stroke-linecap="round" transform="matrix(0.528435, 0, 0, 0.528435, 178.431352, 179.170542)" fill-opacity="1" fill="#008000" fill-rule="evenodd" stroke-linejoin="round" d="M 220.163605 232.728481 C 221.309383 233.031558 304.086287 236.875457 304.160209 236.794144 C 304.160209 236.875457 345.933051 311.343625 346.613125 311.868465 C 376.699034 260.064522 414.627976 195.753121 444.713884 144.0231 C 431.822036 88.90749 396.229002 65.940189 349.326032 59.161619 C 329.345145 58.7107 305.971277 60.891374 286.596543 88.678335 C 286.064311 89.506251 220.163605 230.850884 220.163605 232.728481 Z M 220.163605 232.728481 " stroke="#000000" stroke-width="7" stroke-opacity="1" stroke-miterlimit="4"/><path fill="#008000" d="M 437.0625 309.238281 L 401.042969 332.875 L 500.097656 332.914062 L 551.0625 244.214844 C 538.550781 250.625 526.039062 257.03125 513.527344 263.394531 C 503.125 245.449219 492.605469 227.503906 482.167969 209.558594 C 482.007812 209.238281 481.847656 208.921875 481.332031 208.921875 C 461.527344 209.199219 441.683594 209.480469 421.960938 209.714844 C 402.199219 209.957031 382.351562 210.195312 362.589844 210.433594 C 372.152344 212.703125 385.597656 218.261719 396.101562 231.960938 C 410.0625 250.171875 421.242188 280.226562 437.0625 309.238281 Z M 437.0625 309.238281 " fill-opacity="1" fill-rule="evenodd"/><g clip-path="url(#f1c507265f)"><path stroke-linecap="round" transform="matrix(0.528435, 0, 0, 0.528435, 178.431352, 179.170542)" fill="none" stroke-linejoin="round" d="M 489.428788 246.137778 L 421.266095 290.867466 L 608.715349 290.941387 L 705.160275 123.08863 C 681.48333 135.219091 657.806385 147.34216 634.129441 159.383915 C 614.444238 125.424539 594.537273 91.465162 574.785541 57.505785 C 574.482464 56.899632 574.179388 56.300871 573.203629 56.300871 C 535.725605 56.825711 498.173661 57.357943 460.850872 57.80147 C 423.454162 58.259781 385.894825 58.7107 348.498115 59.161619 C 366.594012 63.456438 392.037672 73.975418 411.91507 99.899565 C 438.334489 134.361606 459.490722 191.236539 489.428788 246.137778 Z M 489.428788 246.137778 " stroke="#000000" stroke-width="7" stroke-opacity="1" stroke-miterlimit="4"/></g><path stroke-linecap="round" transform="matrix(0.528435, 0, 0, 0.528435, 178.431352, 179.170542)" fill-opacity="1" fill="#008000" fill-rule="evenodd" stroke-linejoin="round" d="M 700.00797 298.732676 C 699.20223 299.538417 657.29633 374.974951 657.29633 375.048872 C 657.222408 375.048872 575.103402 377.532623 574.275485 377.917013 C 603.156479 430.40103 638.594278 496.21303 667.401351 548.770968 C 719.582291 563.459101 755.774086 541.770635 783.967613 501.934527 C 793.924792 483.786885 803.497581 461.270502 789.474739 430.105345 C 772.472874 402.865401 701.589883 299.641906 700.00797 298.732676 Z M 700.00797 298.732676 " stroke="#000000" stroke-width="7" stroke-opacity="1" stroke-miterlimit="4"/><path stroke-linecap="round" transform="matrix(0.528435, 0, 0, 0.528435, 178.431352, 179.170542)" fill-opacity="1" fill="#008000" fill-rule="evenodd" stroke-linejoin="round" d="M 559.779548 540.787484 L 555.181652 456.450843 L 464.916535 628.664948 L 558.87771 798.092225 C 560.156545 770.527028 561.435381 742.969223 562.721609 715.411418 C 600.724473 713.60035 638.653415 711.715361 676.508437 709.911685 C 677.181119 709.911685 677.787273 709.985606 678.319505 709.083768 C 695.809249 674.444317 713.513365 639.723552 731.099206 605.091493 C 748.648088 570.525963 773.005107 527.392972 789.326897 491.349019 C 776.959888 505.881917 750.703096 533.949778 719.412272 539.811725 C 677.942507 547.573446 620.18052 539.582569 559.779548 540.787484 Z M 559.779548 540.787484 " stroke="#000000" stroke-width="7" stroke-opacity="1" stroke-miterlimit="4"/><path stroke-linecap="round" transform="matrix(0.528435, 0, 0, 0.528435, 178.431352, 179.170542)" fill-opacity="1" fill="#008000" fill-rule="evenodd" stroke-linejoin="round" d="M 392.207691 698.239535 C 392.289004 697.788616 352.038938 620.674072 351.965017 620.607543 C 352.038938 620.607543 391.631106 544.853147 391.705027 543.943917 C 333.869119 543.566919 261.633371 542.509847 203.797462 542.140241 C 165.336288 582.05027 164.811447 625.796807 183.358264 671.354413 C 193.315443 689.649897 207.035209 709.527295 239.907944 712.617199 C 250.811314 713.289881 390.618386 699.215294 392.207691 698.239535 Z M 392.207691 698.239535 " stroke="#000000" stroke-width="7" stroke-opacity="1" stroke-miterlimit="4"/><path stroke-linecap="round" transform="matrix(0.528435, 0, 0, 0.528435, 178.431352, 179.170542)" fill-opacity="1" fill="#008000" fill-rule="evenodd" stroke-linejoin="round" d="M 264.353669 449.221355 L 335.465816 486.448046 L 239.767494 319.024032 L 53.870585 318.580505 C 75.884303 333.638244 96.885302 348.695982 118.972942 363.75372 C 101.409277 398.991933 83.682985 434.237538 66.19324 469.47575 C 65.816242 470.007982 65.439245 470.606744 65.964085 471.508582 C 85.494053 505.017039 105.179255 538.451576 124.783144 571.893504 C 144.387034 605.328041 164.138765 638.755185 183.823967 672.189722 C 178.013765 653.665081 173.645025 625.427202 184.577963 594.254652 C 199.125646 552.762711 234.873914 504.492199 264.353669 449.221355 Z M 264.353669 449.221355 " stroke="#000000" stroke-width="7" stroke-opacity="1" stroke-miterlimit="4"/></svg>